<svg id="visual" viewBox="0 0 960 540" width="960" height="540" xmlns="http://www.w3.org/2000/svg" xmlns:xlink="http://www.w3.org/1999/xlink" version="1.1"><rect x="0" y="0" width="960" height="540" fill="#001220"></rect><defs><linearGradient id="grad1_0" x1="43.8%" y1="0%" x2="100%" y2="100%"><stop offset="14.444444444444446%" stop-color="#fbae3c" stop-opacity="1"></stop><stop offset="85.55555555555554%" stop-color="#fbae3c" stop-opacity="1"></stop></linearGradient></defs><defs><linearGradient id="grad1_1" x1="43.8%" y1="0%" x2="100%" y2="100%"><stop offset="14.444444444444446%" stop-color="#fbae3c" stop-opacity="1"></stop><stop offset="85.55555555555554%" stop-color="#cc5867" stop-opacity="1"></stop></linearGradient></defs><defs><linearGradient id="grad1_2" x1="43.8%" y1="0%" x2="100%" y2="100%"><stop offset="14.444444444444446%" stop-color="#593762" stop-opacity="1"></stop><stop offset="85.55555555555554%" stop-color="#cc5867" stop-opacity="1"></stop></linearGradient></defs><defs><linearGradient id="grad1_3" x1="43.8%" y1="0%" x2="100%" y2="100%"><stop offset="14.444444444444446%" stop-color="#593762" stop-opacity="1"></stop><stop offset="85.55555555555554%" stop-color="#001220" stop-opacity="1"></stop></linearGradient></defs><defs><linearGradient id="grad2_0" x1="0%" y1="0%" x2="56.3%" y2="100%"><stop offset="14.444444444444446%" stop-color="#fbae3c" stop-opacity="1"></stop><stop offset="85.55555555555554%" stop-color="#fbae3c" stop-opacity="1"></stop></linearGradient></defs><defs><linearGradient id="grad2_1" x1="0%" y1="0%" x2="56.3%" y2="100%"><stop offset="14.444444444444446%" stop-color="#cc5867" stop-opacity="1"></stop><stop offset="85.55555555555554%" stop-color="#fbae3c" stop-opacity="1"></stop></linearGradient></defs><defs><linearGradient id="grad2_2" x1="0%" y1="0%" x2="56.3%" y2="100%"><stop offset="14.444444444444446%" stop-color="#cc5867" stop-opacity="1"></stop><stop offset="85.55555555555554%" stop-color="#593762" stop-opacity="1"></stop></linearGradient></defs><defs><linearGradient id="grad2_3" x1="0%" y1="0%" x2="56.3%" y2="100%"><stop offset="14.444444444444446%" stop-color="#001220" stop-opacity="1"></stop><stop offset="85.55555555555554%" stop-color="#593762" stop-opacity="1"></stop></linearGradient></defs><g transform="translate(960, 0)"><path d="M0 378C-33.3 386.7 -66.6 395.4 -84.1 368.5C-101.6 341.6 -103.3 279.1 -125.8 261.3C-148.4 243.5 -191.7 270.4 -208.2 261.1C-224.8 251.9 -214.5 206.5 -233.8 186.4C-253.1 166.3 -301.9 171.5 -328 157.9C-354 144.4 -357.2 112 -361.7 82.6C-366.2 53.1 -372.1 26.6 -378 0L0 0Z" fill="#232745"></path><path d="M0 283.5C-25 290 -50 296.6 -63.1 276.4C-76.2 256.2 -77.5 209.3 -94.4 196C-111.3 182.6 -143.8 202.8 -156.2 195.8C-168.6 188.9 -160.9 154.9 -175.3 139.8C-189.8 124.7 -226.4 128.6 -246 118.5C-265.5 108.3 -267.9 84 -271.3 61.9C-274.7 39.8 -279.1 19.9 -283.5 0L0 0Z" fill="#96446e"></path><path d="M0 189C-16.7 193.4 -33.3 197.7 -42.1 184.3C-50.8 170.8 -51.7 139.5 -62.9 130.6C-74.2 121.7 -95.9 135.2 -104.1 130.6C-112.4 125.9 -107.2 103.3 -116.9 93.2C-126.5 83.2 -151 85.8 -164 79C-177 72.2 -178.6 56 -180.8 41.3C-183.1 26.6 -186.1 13.3 -189 0L0 0Z" fill="#f17c53"></path><path d="M0 94.5C-8.3 96.7 -16.7 98.9 -21 92.1C-25.4 85.4 -25.8 69.8 -31.5 65.3C-37.1 60.9 -47.9 67.6 -52.1 65.3C-56.2 63 -53.6 51.6 -58.4 46.6C-63.3 41.6 -75.5 42.9 -82 39.5C-88.5 36.1 -89.3 28 -90.4 20.6C-91.6 13.3 -93 6.6 -94.5 0L0 0Z" fill="#fbae3c"></path></g><g transform="translate(0, 540)"><path d="M0 -378C24.4 -352.3 48.8 -326.6 71.7 -313.9C94.5 -301.2 115.7 -301.5 147.1 -305.4C178.4 -309.4 219.9 -317.1 235.7 -295.5C251.4 -274 241.5 -223.2 235.3 -187.7C229.2 -152.1 226.9 -131.8 241.5 -116.3C256 -100.8 287.4 -90 313 -71.4C338.5 -52.8 358.3 -26.4 378 0L0 0Z" fill="#232745"></path><path d="M0 -283.5C18.3 -264.2 36.6 -245 53.7 -235.4C70.9 -225.9 86.8 -226.1 110.3 -229.1C133.8 -232 164.9 -237.8 176.8 -221.6C188.6 -205.5 181.1 -167.4 176.5 -140.8C171.9 -114.1 170.2 -98.9 181.1 -87.2C192 -75.6 215.5 -67.5 234.7 -53.6C253.9 -39.6 268.7 -19.8 283.5 0L0 0Z" fill="#96446e"></path><path d="M0 -189C12.2 -176.2 24.4 -163.3 35.8 -157C47.2 -150.6 57.9 -150.7 73.5 -152.7C89.2 -154.7 110 -158.5 117.8 -147.8C125.7 -137 120.7 -111.6 117.7 -93.8C114.6 -76.1 113.5 -65.9 120.7 -58.1C128 -50.4 143.7 -45 156.5 -35.7C169.3 -26.4 179.1 -13.2 189 0L0 0Z" fill="#f17c53"></path><path d="M0 -94.5C6.1 -88.1 12.2 -81.7 17.9 -78.5C23.6 -75.3 28.9 -75.4 36.8 -76.4C44.6 -77.3 55 -79.3 58.9 -73.9C62.9 -68.5 60.4 -55.8 58.8 -46.9C57.3 -38 56.7 -33 60.4 -29.1C64 -25.2 71.8 -22.5 78.2 -17.9C84.6 -13.2 89.6 -6.6 94.5 0L0 0Z" fill="#fbae3c"></path></g></svg>